<svg xmlns="http://www.w3.org/2000/svg" viewBox="0 0 751.74 293.35"><defs><style>.cls-1{fill:#fff;}.cls-2{fill:#fcb315;}.cls-3{font-size:67px;font-family:Montserrat-Bold, Montserrat;font-weight:700;}.cls-4{letter-spacing:-0.01em;}</style></defs><g id="Capa_2" data-name="Capa 2"><g id="Capa_1-2" data-name="Capa 1"><path class="cls-1" d="M382.5,293.35H0V0H382.5Zm-190.34-14q67.12,0,134.24,0c23.54,0,37.61-12,37.84-35.07q1-98.49,0-197C364,26.38,349.27,12,328.6,11.89q-135-.59-269.92,0c-22.39.09-35.94,15-36,37.49q-.09,96.34,0,192.69c0,24.61,12.36,37.19,36.63,37.24Q125.75,279.42,192.16,279.32Z"/><path d="M192.16,279.32q-66.41,0-132.82,0c-24.27-.05-36.62-12.63-36.63-37.24q-.08-96.35,0-192.69c0-22.47,13.58-37.4,36-37.49q135-.55,269.92,0C349.27,12,364,26.38,364.22,47.23q.9,98.49,0,197c-.23,23.11-14.3,35-37.84,35.07Q259.27,279.4,192.16,279.32ZM125.52,138.64c-12.08,14.68-23.42,28.24-34.48,42-5.52,6.89-6.65,15.39,1.51,19.69,4.63,2.44,14.76,1.48,18.12-2.07,14.74-15.57,28-32.62,41.62-49.21,5.64-6.84,5.64-13.54-.26-20.6C138.85,112.73,126,96.74,113,80.77c-6-7.37-13.32-10.32-21-4.1-7.85,6.38-6,14,.2,21.27C103.34,111.06,114,124.51,125.52,138.64Zm82.82,71.81c-14.28,0-28.57,0-42.85,0-7.59,0-14.6,2.35-12.55,11.07,1.19,5,7.31,12.48,11.44,12.64,28.53,1.12,57.14,1.13,85.67,0,4.27-.16,10.54-7.37,11.84-12.38,2.18-8.35-4.15-11.49-12.12-11.38C236,210.58,222.15,210.45,208.34,210.45Z"/><path class="cls-1" d="M125.52,138.64c-11.51-14.13-22.18-27.58-33.25-40.7-6.16-7.31-8-14.89-.2-21.27,7.65-6.22,15-3.27,21,4.1,12.91,16,25.81,32,39,47.71,5.9,7.06,5.9,13.76.26,20.6-13.67,16.59-26.88,33.64-41.62,49.21-3.36,3.55-13.49,4.51-18.12,2.07-8.16-4.3-7-12.8-1.51-19.69C102.1,166.88,113.44,153.32,125.52,138.64Z"/><path class="cls-2" d="M208.34,210.45c13.81,0,27.62.13,41.43,0,8-.11,14.3,3,12.12,11.38-1.3,5-7.57,12.22-11.84,12.38-28.53,1.1-57.14,1.09-85.67,0-4.13-.16-10.25-7.61-11.44-12.64-2.05-8.72,5-11.1,12.55-11.07C179.77,210.49,194.06,210.45,208.34,210.45Z"/><text class="cls-3" transform="translate(407.5 128.78)">Argentina<tspan x="0" y="73">prog</tspan><tspan class="cls-4" x="160.53" y="73">r</tspan><tspan x="188.13" y="73">ama</tspan></text></g></g></svg>