<svg xmlns="http://www.w3.org/2000/svg" viewBox="0 0 100 101.17"><g id="Capa_2" data-name="Capa 2"><g id="Capa_1-2" data-name="Capa 1"><path d="M33.45,81.46c0,.42-.47.76-1.05.76s-1.13-.28-1.13-.76.46-.75,1.05-.75S33.45,81,33.45,81.46Zm-6.27-.94c-.14.42.26.9.86,1a.93.93,0,0,0,1.25-.42c.13-.42-.26-.9-.86-1.09A1,1,0,0,0,27.18,80.52Zm8.91-.35c-.59.14-1,.54-.93,1s.59.69,1.19.55,1-.55.93-1S36.67,80.1,36.09,80.17ZM49.35,0C21.39,0,0,22,0,51.05c0,23.2,14.07,43.05,34.17,50,2.58.48,3.49-1.18,3.49-2.53s-.06-8.46-.06-12.85c0,0-14.11,3.14-17.08-6.23,0,0-2.29-6.09-5.6-7.66,0,0-4.62-3.29.32-3.22A10.59,10.59,0,0,1,23,74c4.42,8.08,11.82,5.76,14.7,4.38A11.83,11.83,0,0,1,41,71.32c-11.27-1.3-22.64-3-22.64-23.12,0-5.75,1.53-8.64,4.75-12.32a20.53,20.53,0,0,1,.53-14.21c4.21-1.36,13.91,5.65,13.91,5.65a45.91,45.91,0,0,1,25.32,0s9.7-7,13.91-5.65a20.46,20.46,0,0,1,.53,14.21c3.22,3.7,5.2,6.59,5.2,12.32,0,20.19-11.88,21.8-23.15,23.12,1.86,1.65,3.43,4.79,3.43,9.7,0,7-.06,15.78-.06,17.49,0,1.36.93,3,3.49,2.53C86.33,94.1,100,74.25,100,51.05,100,22,77.32,0,49.35,0ZM19.6,72.15c-.27.21-.2.69.14,1.09s.78.48,1.05.21.2-.69-.14-1.09S19.86,71.88,19.6,72.15Zm-2.18-1.69c-.14.27.06.61.46.82a.6.6,0,0,0,.87-.15c.14-.27-.06-.61-.46-.82S17.56,70.25,17.42,70.46ZM24,77.91c-.32.27-.2.9.26,1.29s1.05.55,1.31.21.15-.9-.26-1.29S24.21,77.57,24,77.91Zm-2.3-3.08c-.32.21-.32.75,0,1.24s.87.69,1.13.48a1,1,0,0,0,0-1.3C22.5,74.77,22,74.56,21.65,74.83Z"/></g></g></svg>