<svg xmlns="http://www.w3.org/2000/svg" viewBox="0 0 100 101.17"><g id="Capa_2" data-name="Capa 2"><g id="Capa_1-2" data-name="Capa 1"><path d="M50,24.65A25.94,25.94,0,1,0,75.64,50.59,25.74,25.74,0,0,0,50,24.65Zm0,42.8A16.87,16.87,0,1,1,66.68,50.59,16.79,16.79,0,0,1,50,67.45ZM82.67,23.59a6,6,0,1,1-6-6.05A6,6,0,0,1,82.67,23.59Zm17,6.14c-.38-8.11-2.21-15.29-8.08-21.2S78.63.76,70.62.36c-8.25-.48-33-.48-41.24,0-8,.38-15.09,2.23-20.95,8.15S.75,21.6.35,29.7c-.47,8.36-.47,33.39,0,41.75.38,8.1,2.21,15.28,8.08,21.19s12.94,7.77,21,8.18c8.25.47,33,.47,41.24,0,8-.39,15.11-2.24,20.95-8.18s7.68-13.09,8.08-21.19c.47-8.36.47-33.37,0-41.72ZM89,80.41A17,17,0,0,1,79.48,90c-6.58,2.64-22.2,2-29.47,2s-22.91.58-29.47-2A17,17,0,0,1,11,80.41C8.43,73.75,9,58,9,50.59S8.45,27.4,11,20.76a17,17,0,0,1,9.5-9.61c6.58-2.64,22.2-2,29.47-2s22.91-.58,29.47,2A17,17,0,0,1,89,20.76c2.61,6.66,2,22.47,2,29.83S91.6,73.77,89,80.41Z"/></g></g></svg>