<?xml version="1.0" encoding="UTF-8"?><svg id="Capa_2" xmlns="http://www.w3.org/2000/svg" viewBox="0 0 98.56 121.03"><g id="Capa_1-2"><g><path d="M17.01,44.15c0-4.75-.24-9.41,.04-14.04C18.09,12.88,32.2-.13,49.5,0c17.16,.13,30.93,13.04,32.04,30.04,.09,1.33,.21,2.67,.12,3.99-.42,6.06-.86,11.24,7.78,12.63,5.59,.9,8.87,6.49,8.95,12.53,.2,15.82,.29,31.65-.01,47.47-.16,8.54-6.75,14.17-16.06,14.29-13.16,.16-26.32,.05-39.48,.05-8.5,0-16.99,.06-25.49-.02C5.87,120.87,.09,115.13,.03,103.75c-.07-12.66-.02-25.32-.02-37.98,0-14.46,2.41-17.66,17-21.62ZM49.03,112.42c10.82,0,21.65,.06,32.47-.02,5.98-.05,8.52-2.54,8.56-8.55,.09-13.82,.08-27.64,0-41.46-.03-6.28-2.57-8.81-8.81-8.83-21.31-.05-42.63-.05-63.94,0-6.24,.01-8.79,2.56-8.82,8.82-.08,13.65-.06,27.31,0,40.96,.03,6.6,2.48,9.03,9.07,9.07,10.49,.05,20.98,.01,31.47,.01Zm24.08-67.84c0-4.74,.28-9.21-.05-13.63-.91-11.9-9.68-20.93-21.27-22.24-10.98-1.25-22.4,5.8-24.98,16.4-1.49,6.16-1.31,12.72-1.92,19.48h48.23Z"/><path d="M39.78,76.6c2.16-2.39,3.93-5.94,6.6-6.84,2.52-.85,6.47,.34,8.89,1.96,3.23,2.16,2.97,6.03,1.58,9.53-1.12,2.81-2.13,5.68-3.56,8.33-.7,1.28-2.16,2.77-3.44,2.94-1.3,.18-3.52-.77-4.09-1.87-1.85-3.54-3.14-7.37-4.6-11.1-.24-.6-.22-1.3-.32-1.96l-1.05-.99Z"/></g></g></svg>