<svg xmlns="http://www.w3.org/2000/svg" viewBox="0 0 100 82.17"><g id="Capa_2" data-name="Capa 2"><g id="Capa_1-2" data-name="Capa 1"><path d="M89.72,20.48c.06.9.06,1.8.06,2.69,0,27.42-20.62,59-58.31,59A57.38,57.38,0,0,1,0,72.86a42.49,42.49,0,0,0,5,.26,40.76,40.76,0,0,0,25.44-8.86A20.55,20.55,0,0,1,11.23,49.88a25.9,25.9,0,0,0,3.87.32,21.36,21.36,0,0,0,5.39-.71A20.67,20.67,0,0,1,4.06,29.14v-.25a20.49,20.49,0,0,0,9.26,2.63A20.93,20.93,0,0,1,7,3.79a58,58,0,0,0,42.26,21.7,23.58,23.58,0,0,1-.51-4.75A20.61,20.61,0,0,1,69.23,0a20.3,20.3,0,0,1,15,6.55,40.07,40.07,0,0,0,13-5A20.63,20.63,0,0,1,88.2,13,40.91,40.91,0,0,0,100,9.76,44.18,44.18,0,0,1,89.72,20.48Z"/></g></g></svg>