<?xml version="1.0" encoding="UTF-8"?><svg id="Capa_2" xmlns="http://www.w3.org/2000/svg" viewBox="0 0 90.45 112.97"><g id="Capa_1-2"><g><path d="M45.22,112.97c-10.99-.38-21.61-1.99-31.23-7.69C3.62,99.13-.96,90.05,.17,78.06c.53-5.65,4.72-10.21,10.38-10.25,23.16-.16,46.31-.16,69.47,0,5.63,.04,9.81,4.64,10.3,10.33,.98,11.52-3.45,20.49-13.14,26.67-9.73,6.21-20.74,7.78-31.96,8.14Zm.26-36.77c-10.48,0-20.96,.11-31.43-.06-3.87-.06-5.23,1.36-5.33,5.23-.19,7.73,3.25,13.28,9.89,16.52,17.68,8.63,35.59,8.68,53.26,0,6.62-3.25,10.09-8.79,9.88-16.53-.1-3.87-1.48-5.28-5.34-5.22-10.31,.17-20.62,.06-30.93,.06Z"/><path d="M17.06,27.63C17.27,12.41,30.27-.2,45.54,0c15.77,.21,28.19,13.23,27.88,29.23-.3,15.2-13.47,27.75-28.73,27.35-15.68-.41-27.85-13.15-27.63-28.94ZM45.19,8.87c-10.81,.02-19.37,8.45-19.54,19.26-.17,10.8,8.75,19.75,19.65,19.73,10.9-.03,19.72-8.98,19.54-19.83-.18-10.77-8.79-19.16-19.65-19.15Z"/></g></g></svg>